# xmcd CD database file
#
# Track frame offsets:
#	150
#	16932
#	30418
#	51051
#	75657
#	93893
#	113224
#	123390
#	144087
#	164663
#	180607
#	199151
#	222045
#
# Disc length: 3150 seconds
#
# Revision: 0
# Processed by: cddbd v1.5.2PL0 Copyright (c) Steve Scherf et al.
# Submitted via: CDex 1.50
#
DISCID=a20c4c0d
DTITLE=Christian Redl - Louise
DYEAR=2016
DGENRE=Jazz
TTITLE0=Erdbeermund
TTITLE1=Jean Jacques and Nicola
TTITLE2=Bordell-Ballade
TTITLE3=Cylea
TTITLE4=Louise
TTITLE5=Jean Cotart
TTITLE6=Abendweib
TTITLE7=Herz aus Stein
TTITLE8=Pierre, der rote Coquillard
TTITLE9=Die Mäusefrau
TTITLE10=Nur der, der lebt
TTITLE11=Francois Villon
TTITLE12=Tod
EXTD=YEAR: 2016
EXTT0=
EXTT1=
EXTT2=
EXTT3=
EXTT4=
EXTT5=
EXTT6=
EXTT7=
EXTT8=
EXTT9=
EXTT10=
EXTT11=
EXTT12=
PLAYORDER=
